<svg xmlns="http://www.w3.org/2000/svg" viewBox="0 0 980 640" font-family="system-ui, -apple-system, 'Segoe UI', Helvetica, Arial, sans-serif" role="img" aria-label="System overview: five planes from sources to Azure, with telemetry feeding back"><defs><marker id="arrow-dark" viewBox="0 0 10 10" refX="8.5" refY="5" markerWidth="7.5" markerHeight="7.5" orient="auto-start-reverse"><path d="M 0 1 L 9 5 L 0 9 z" fill="#8b8983"/></marker><marker id="arrow-good-dark" viewBox="0 0 10 10" refX="8.5" refY="5" markerWidth="7.5" markerHeight="7.5" orient="auto-start-reverse"><path d="M 0 1 L 9 5 L 0 9 z" fill="#0ca30c"/></marker><marker id="arrow-bad-dark" viewBox="0 0 10 10" refX="8.5" refY="5" markerWidth="7.5" markerHeight="7.5" orient="auto-start-reverse"><path d="M 0 1 L 9 5 L 0 9 z" fill="#e66767"/></marker><marker id="arrow-warn-dark" viewBox="0 0 10 10" refX="8.5" refY="5" markerWidth="7.5" markerHeight="7.5" orient="auto-start-reverse"><path d="M 0 1 L 9 5 L 0 9 z" fill="#ec835a"/></marker></defs><rect x="0" y="0" width="980" height="640" rx="14" fill="#1a1a19"/><rect x="0.5" y="0.5" width="979" height="639" rx="14" fill="none" stroke="#2c2c2a" stroke-width="1"/><text x="28" y="40" font-size="17" text-anchor="start" fill="#ffffff" font-weight="700">System overview</text><text x="28" y="60" font-size="12" text-anchor="start" fill="#c3c2b7" font-weight="normal">AI recommends · policy authorizes · runbooks execute · verification closes the loop</text><rect x="28" y="84" width="924" height="92" rx="12" fill="#1e1e1d" stroke="#4d4c48" stroke-width="1"/><rect x="40" y="94" width="53.800000000000004" height="18" rx="9" fill="#2a2928"/><text x="66.9" y="107" font-size="10.5" text-anchor="middle" fill="#a6a5a0" font-weight="600" letter-spacing="0.04em">SOURCES</text><rect x="52" y="112" width="270" height="48" rx="9" fill="#252523" stroke="#2c2c2a" stroke-width="1"/><rect x="52" y="112" width="4" height="48" rx="2" fill="#898781"/><text x="187.0" y="140.68" font-size="13" text-anchor="middle" fill="#ffffff" font-weight="600">Git · GitHub · Azure DevOps</text><rect x="354" y="112" width="270" height="48" rx="9" fill="#252523" stroke="#2c2c2a" stroke-width="1"/><rect x="354" y="112" width="4" height="48" rx="2" fill="#898781"/><text x="489.0" y="140.68" font-size="13" text-anchor="middle" fill="#ffffff" font-weight="600">Work items · ADRs · runbooks</text><rect x="656" y="112" width="272" height="48" rx="9" fill="#252523" stroke="#2c2c2a" stroke-width="1"/><rect x="656" y="112" width="4" height="48" rx="2" fill="#898781"/><text x="792.0" y="140.68" font-size="13" text-anchor="middle" fill="#ffffff" font-weight="600">AKS · Azure Monitor · deploys</text><rect x="28" y="204" width="452" height="118" rx="12" fill="#1b1e20" stroke="#314c6b" stroke-width="1"/><rect x="40" y="214" width="188.20000000000002" height="18" rx="9" fill="#1e2936"/><text x="134.10000000000002" y="227" font-size="10.5" text-anchor="middle" fill="#6aa5ec" font-weight="600" letter-spacing="0.04em">KNOWLEDGE PLANE — ingestion/</text><rect x="52" y="240" width="190" height="62" rx="9" fill="#1d252d" stroke="#2c2c2a" stroke-width="1"/><rect x="52" y="240" width="4" height="62" rx="2" fill="#3987e5"/><text x="147.0" y="267.68" font-size="13" text-anchor="middle" fill="#ffffff" font-weight="600">Governed ingestion</text><text x="147.0" y="283.68" font-size="11" text-anchor="middle" fill="#c3c2b7" font-weight="normal">chunk · ACL · ledger / DLQ</text><path d="M 270.0 247 v 48 a 60.0 9 0 0 0 120 0 v -48" fill="#1e2731" stroke="#325a88" stroke-width="1.2"/><ellipse cx="330" cy="247" rx="60.0" ry="9" fill="#1e2731" stroke="#325a88" stroke-width="1.2"/><text x="330" y="266.0" font-size="11.5" text-anchor="middle" fill="#ffffff" font-weight="600">Search index</text><text x="330" y="280.0" font-size="11.5" text-anchor="middle" fill="#ffffff" font-weight="600">+ metadata</text><rect x="500" y="204" width="452" height="118" rx="12" fill="#1a1f1c" stroke="#255442" stroke-width="1"/><rect x="512" y="214" width="117.80000000000001" height="18" rx="9" fill="#1a2c25"/><text x="570.9" y="227" font-size="10.5" text-anchor="middle" fill="#52b694" font-weight="600" letter-spacing="0.04em">AI GATEWAY — app/</text><rect x="524" y="240" width="404" height="62" rx="9" fill="#1a2722" stroke="#2c2c2a" stroke-width="1"/><rect x="524" y="240" width="4" height="62" rx="2" fill="#199e70"/><text x="726.0" y="267.68" font-size="13" text-anchor="middle" fill="#ffffff" font-weight="600">ACL filter → retrieve → LLM → citations</text><text x="726.0" y="283.68" font-size="11" text-anchor="middle" fill="#c3c2b7" font-weight="normal">authorization happens before retrieval</text><rect x="28" y="350" width="452" height="118" rx="12" fill="#211c19" stroke="#693c29" stroke-width="1"/><rect x="40" y="360" width="252.20000000000002" height="18" rx="9" fill="#35231b"/><text x="166.10000000000002" y="373" font-size="10.5" text-anchor="middle" fill="#e2825c" font-weight="600" letter-spacing="0.04em">INTELLIGENCE — intelligence/, product/</text><rect x="52" y="386" width="190" height="62" rx="9" fill="#2d201a" stroke="#2c2c2a" stroke-width="1"/><rect x="52" y="386" width="4" height="62" rx="2" fill="#d95926"/><text x="147.0" y="413.68" font-size="13" text-anchor="middle" fill="#ffffff" font-weight="600">PR Guardian · change risk</text><text x="147.0" y="429.68" font-size="11" text-anchor="middle" fill="#c3c2b7" font-weight="normal">deterministic, explainable</text><rect x="266" y="386" width="190" height="62" rx="9" fill="#2d201a" stroke="#2c2c2a" stroke-width="1"/><rect x="266" y="386" width="4" height="62" rx="2" fill="#d95926"/><text x="361.0" y="413.68" font-size="13" text-anchor="middle" fill="#ffffff" font-weight="600">Incident · deploy · drift</text><text x="361.0" y="429.68" font-size="11" text-anchor="middle" fill="#c3c2b7" font-weight="normal">evidence-cited hypotheses</text><rect x="500" y="350" width="452" height="118" rx="12" fill="#1e1e20" stroke="#4f4b6d" stroke-width="1"/><rect x="512" y="360" width="252.20000000000002" height="18" rx="9" fill="#2b2936"/><text x="638.1" y="373" font-size="10.5" text-anchor="middle" fill="#aca4ee" font-weight="600" letter-spacing="0.04em">CONTROL PLANE — control_plane/, state/</text><rect x="524" y="386" width="190" height="62" rx="9" fill="#26252e" stroke="#2c2c2a" stroke-width="1"/><rect x="524" y="386" width="4" height="62" rx="2" fill="#9085e9"/><text x="619.0" y="413.68" font-size="13" text-anchor="middle" fill="#ffffff" font-weight="600">Durable workflows</text><text x="619.0" y="429.68" font-size="11" text-anchor="middle" fill="#c3c2b7" font-weight="normal">plan hashes · approvals</text><path d="M 741.0 393 v 48 a 65.0 9 0 0 0 130 0 v -48" fill="#282732" stroke="#5e588a" stroke-width="1.2"/><ellipse cx="806" cy="393" rx="65.0" ry="9" fill="#282732" stroke="#5e588a" stroke-width="1.2"/><text x="806" y="412.0" font-size="11.5" text-anchor="middle" fill="#ffffff" font-weight="600">Audit log</text><text x="806" y="426.0" font-size="11.5" text-anchor="middle" fill="#ffffff" font-weight="600">hash-chained</text><rect x="28" y="496" width="700" height="118" rx="12" fill="#211c1d" stroke="#673948" stroke-width="1"/><rect x="40" y="506" width="162.60000000000002" height="18" rx="9" fill="#342228"/><text x="121.30000000000001" y="519" font-size="10.5" text-anchor="middle" fill="#e07ca0" font-weight="600" letter-spacing="0.04em">EXECUTION — remediation/</text><rect x="52" y="532" width="190" height="62" rx="9" fill="#2d2023" stroke="#2c2c2a" stroke-width="1"/><rect x="52" y="532" width="4" height="62" rx="2" fill="#d55181"/><text x="147.0" y="559.68" font-size="13" text-anchor="middle" fill="#ffffff" font-weight="600">Certified runbooks</text><text x="147.0" y="575.68" font-size="11" text-anchor="middle" fill="#c3c2b7" font-weight="normal">allow-listed · reversible</text><rect x="266" y="532" width="190" height="62" rx="9" fill="#2d2023" stroke="#2c2c2a" stroke-width="1"/><rect x="266" y="532" width="4" height="62" rx="2" fill="#d55181"/><text x="361.0" y="559.68" font-size="13" text-anchor="middle" fill="#ffffff" font-weight="600">K8s / Azure adapters</text><text x="361.0" y="575.68" font-size="11" text-anchor="middle" fill="#c3c2b7" font-weight="normal">fixed commands only</text><rect x="480" y="532" width="224" height="62" rx="9" fill="#2d2023" stroke="#2c2c2a" stroke-width="1"/><rect x="480" y="532" width="4" height="62" rx="2" fill="#d55181"/><text x="592.0" y="559.68" font-size="13" text-anchor="middle" fill="#ffffff" font-weight="600">Independent verification</text><text x="592.0" y="575.68" font-size="11" text-anchor="middle" fill="#c3c2b7" font-weight="normal">healthy → close · else rollback</text><rect x="772" y="532" width="180" height="62" rx="9" fill="#252523" stroke="#2c2c2a" stroke-width="1"/><rect x="772" y="532" width="4" height="62" rx="2" fill="#898781"/><text x="862.0" y="567.68" font-size="13" text-anchor="middle" fill="#ffffff" font-weight="600">AKS / Azure</text><path d="M 240 176 L 240 204" fill="none" stroke="#8b8983" stroke-width="1.6" marker-end="url(#arrow-dark)"/><text x="270" y="184.0" font-size="11" text-anchor="middle" fill="#c3c2b7" font-weight="normal" paint-order="stroke" stroke="#1a1a19" stroke-width="5" stroke-linejoin="round">events</text><path d="M 147 302 L 147 350" fill="none" stroke="#8b8983" stroke-width="1.6" marker-end="url(#arrow-dark)"/><text x="172" y="320.0" font-size="11" text-anchor="middle" fill="#c3c2b7" font-weight="normal" paint-order="stroke" stroke="#1a1a19" stroke-width="5" stroke-linejoin="round">graph</text><path d="M 390 304 L 390 330 L 560 330 L 560 350" fill="none" stroke="#8b8983" stroke-width="1.6" marker-end="url(#arrow-dark)"/><text x="475" y="326" font-size="11" text-anchor="middle" fill="#c3c2b7" font-weight="normal" paint-order="stroke" stroke="#1a1a19" stroke-width="5" stroke-linejoin="round">evidence</text><path d="M 392 271 L 524 271" fill="none" stroke="#8b8983" stroke-width="1.6" marker-end="url(#arrow-dark)"/><text x="458.0" y="264" font-size="11" text-anchor="middle" fill="#c3c2b7" font-weight="normal" paint-order="stroke" stroke="#1a1a19" stroke-width="5" stroke-linejoin="round">query</text><path d="M 726 302 L 726 350" fill="none" stroke="#8b8983" stroke-width="1.6" marker-end="url(#arrow-dark)"/><text x="800" y="320.0" font-size="11" text-anchor="middle" fill="#c3c2b7" font-weight="normal" paint-order="stroke" stroke="#1a1a19" stroke-width="5" stroke-linejoin="round">grounded answers</text><path d="M 480 417 L 500 417" fill="none" stroke="#8b8983" stroke-width="1.6" marker-end="url(#arrow-dark)"/><path d="M 619 448 L 619 496" fill="none" stroke="#8b8983" stroke-width="1.6" marker-end="url(#arrow-dark)"/><text x="680" y="466.0" font-size="11" text-anchor="middle" fill="#c3c2b7" font-weight="normal" paint-order="stroke" stroke="#1a1a19" stroke-width="5" stroke-linejoin="round">authorized plan</text><path d="M 704 563 L 772 563" fill="none" stroke="#8b8983" stroke-width="1.6" marker-end="url(#arrow-dark)"/><path d="M 952 563 L 964 563 L 964 130 L 928 130" fill="none" stroke="#8b8983" stroke-width="1.6" stroke-dasharray="5 4" marker-end="url(#arrow-dark)"/><text x="953" y="400" font-size="11" text-anchor="middle" fill="#c3c2b7" transform="rotate(-90 953 400)" paint-order="stroke" stroke="#1a1a19" stroke-width="5" stroke-linejoin="round">telemetry feeds back</text></svg>