<svg xmlns="http://www.w3.org/2000/svg" viewBox="0 0 880 490" font-family="system-ui, -apple-system, 'Segoe UI', Helvetica, Arial, sans-serif" role="img" aria-label="Trust boundaries: each crossing has a named control; model output is proposals only"><defs><filter id="soft-dark" x="-12%" y="-12%" width="124%" height="130%"><feDropShadow dx="0" dy="1.5" stdDeviation="2.2" flood-color="#000000" flood-opacity="0.45"/></filter><marker id="arrow-dark" viewBox="0 0 10 10" refX="8.6" refY="5" markerWidth="8" markerHeight="8" orient="auto-start-reverse"><path d="M 0.5 1.2 L 9 5 L 0.5 8.8 z" fill="#8b8983"/></marker><marker id="arrow-good-dark" viewBox="0 0 10 10" refX="8.6" refY="5" markerWidth="8" markerHeight="8" orient="auto-start-reverse"><path d="M 0.5 1.2 L 9 5 L 0.5 8.8 z" fill="#0ca30c"/></marker><marker id="arrow-bad-dark" viewBox="0 0 10 10" refX="8.6" refY="5" markerWidth="8" markerHeight="8" orient="auto-start-reverse"><path d="M 0.5 1.2 L 9 5 L 0.5 8.8 z" fill="#e66767"/></marker><marker id="arrow-warn-dark" viewBox="0 0 10 10" refX="8.6" refY="5" markerWidth="8" markerHeight="8" orient="auto-start-reverse"><path d="M 0.5 1.2 L 9 5 L 0.5 8.8 z" fill="#ec835a"/></marker></defs><rect x="0" y="0" width="880" height="490" rx="14" fill="#1a1a19"/><rect x="0.5" y="0.5" width="879" height="489" rx="14" fill="none" stroke="#2c2c2a" stroke-width="1"/><text x="28" y="40" font-size="16" text-anchor="start" fill="#ffffff" font-weight="700">Security — trust boundaries and their crossings</text><text x="28" y="60" font-size="12" text-anchor="start" fill="#c3c2b7" font-weight="normal">Every arrow is a control; nothing crosses a boundary implicitly</text><rect x="36" y="84" width="724" height="84" rx="12" fill="#1e1e1d" stroke="#4d4c48" stroke-width="1"/><rect x="48" y="94" width="105.0" height="18" rx="9" fill="#2a2928"/><text x="100.5" y="107" font-size="10.5" text-anchor="middle" fill="#a6a5a0" font-weight="600" letter-spacing="0.04em">UNTRUSTED INPUT</text><rect x="60" y="116" width="184" height="40" rx="9" fill="#252523" stroke="#2c2c2a" stroke-width="1" filter="url(#soft-dark)"/><rect x="60" y="116" width="4" height="40" rx="2" fill="#898781"/><text x="152.0" y="140.68" font-size="13" text-anchor="middle" fill="#ffffff" font-weight="600">Webhooks</text><rect x="300" y="116" width="220" height="40" rx="9" fill="#252523" stroke="#2c2c2a" stroke-width="1" filter="url(#soft-dark)"/><rect x="300" y="116" width="4" height="40" rx="2" fill="#898781"/><text x="410.0" y="140.68" font-size="13" text-anchor="middle" fill="#ffffff" font-weight="600">Retrieved content</text><rect x="560" y="116" width="184" height="40" rx="9" fill="#252523" stroke="#2c2c2a" stroke-width="1" filter="url(#soft-dark)"/><rect x="560" y="116" width="4" height="40" rx="2" fill="#898781"/><text x="652.0" y="140.68" font-size="13" text-anchor="middle" fill="#ffffff" font-weight="600">Model output</text><rect x="36" y="206" width="724" height="68" rx="12" fill="#1b1e20" stroke="#314c6b" stroke-width="1"/><rect x="48" y="216" width="117.80000000000001" height="18" rx="9" fill="#1e2936"/><text x="106.9" y="229" font-size="10.5" text-anchor="middle" fill="#6aa5ec" font-weight="600" letter-spacing="0.04em">GOVERNED EVIDENCE</text><rect x="320" y="222" width="220" height="40" rx="9" fill="#1d252d" stroke="#2c2c2a" stroke-width="1" filter="url(#soft-dark)"/><rect x="320" y="222" width="4" height="40" rx="2" fill="#3987e5"/><text x="430.0" y="246.68" font-size="13" text-anchor="middle" fill="#ffffff" font-weight="600">ACL-trimmed index</text><rect x="36" y="308" width="724" height="68" rx="12" fill="#1e1e20" stroke="#4f4b6d" stroke-width="1"/><rect x="48" y="318" width="156.20000000000002" height="18" rx="9" fill="#2b2936"/><text x="126.10000000000001" y="331" font-size="10.5" text-anchor="middle" fill="#aca4ee" font-weight="600" letter-spacing="0.04em">DETERMINISTIC AUTHORITY</text><rect x="300" y="324" width="270" height="40" rx="9" fill="#26252e" stroke="#2c2c2a" stroke-width="1" filter="url(#soft-dark)"/><rect x="300" y="324" width="4" height="40" rx="2" fill="#9085e9"/><text x="435.0" y="348.68" font-size="13" text-anchor="middle" fill="#ffffff" font-weight="600">Policy · catalog · approvals</text><rect x="36" y="406" width="724" height="54" rx="12" fill="#211c1d" stroke="#673948" stroke-width="1"/><rect x="48" y="416" width="201.0" height="18" rx="9" fill="#342228"/><text x="148.5" y="429" font-size="10.5" text-anchor="middle" fill="#e07ca0" font-weight="600" letter-spacing="0.04em">MUTATION SURFACE — AKS / Azure</text><path d="M 152 156 L 152 242 L 318 242" fill="none" stroke="#8b8983" stroke-width="1.7" marker-end="url(#arrow-dark)"/><text x="164" y="196" font-size="11" text-anchor="middle" fill="#c3c2b7" font-weight="normal" paint-order="stroke" stroke="#1a1a19" stroke-width="5" stroke-linejoin="round">HMAC verification — fail closed</text><path d="M 410 156 L 410 206" fill="none" stroke="#8b8983" stroke-width="1.7" marker-end="url(#arrow-dark)"/><text x="410" y="186" font-size="11" text-anchor="middle" fill="#c3c2b7" font-weight="normal" paint-order="stroke" stroke="#1a1a19" stroke-width="5" stroke-linejoin="round">ACL filter + injection detection</text><path d="M 540 242 L 620 242 L 620 156" fill="none" stroke="#8b8983" stroke-width="1.7" marker-end="url(#arrow-dark)"/><text x="634" y="234" font-size="11" text-anchor="middle" fill="#c3c2b7" font-weight="normal" paint-order="stroke" stroke="#1a1a19" stroke-width="5" stroke-linejoin="round">delimited as data</text><path d="M 700 156 L 700 176 L 786 176 L 786 344 L 572 344" fill="none" stroke="#8b8983" stroke-width="1.7" marker-end="url(#arrow-dark)"/><text x="740" y="338" font-size="11.5" text-anchor="middle" fill="#c3c2b7" font-weight="600" paint-order="stroke" stroke="#1a1a19" stroke-width="5" stroke-linejoin="round">proposals only</text><text x="688" y="360" font-size="10.5" text-anchor="middle" fill="#898781" font-weight="normal" paint-order="stroke" stroke="#1a1a19" stroke-width="5" stroke-linejoin="round">validated against the catalog</text><path d="M 435 364 L 435 406" fill="none" stroke="#8b8983" stroke-width="1.7" marker-end="url(#arrow-dark)"/><text x="435" y="390" font-size="11" text-anchor="middle" fill="#c3c2b7" font-weight="normal" paint-order="stroke" stroke="#1a1a19" stroke-width="5" stroke-linejoin="round">allow-listed fixed commands</text></svg>